# xmcd
#
# Track frame offsets: 
#        300
#        16745
#        32570
#        46480
#        59951
#        76841
#        91768
#        108944
#        130326
#        144076
#        158989
#        174911
#        193668
#
# Disc length: 2908 seconds
#
# Revision: 2
# Processed by: cddbd v1.5.2PL0 Copyright (c) Steve Scherf et al.
# Submitted via: ExactAudioCopy v0.99pb5
#
DISCID=a10b580d
DTITLE=Janiva Magness - Bury Him At The Crossroads
DYEAR=2004
DGENRE=Blues
TTITLE0=A Woman Knows
TTITLE1=The Whale Has Swallowed Me
TTITLE2=Everything Gonna Be Alright
TTITLE3=Lost And Lookin'
TTITLE4=Wasn't That Enough
TTITLE5=The Soul Of A Man
TTITLE6=That's No Way To Get Along
TTITLE7=Bury Him At The Crossroads
TTITLE8=One More Heartache
TTITLE9=I'm Leaving You
TTITLE10=Less And Less Of You
TTITLE11=Ain't Lost Nothing
TTITLE12=Eat The Lunch You Brought
EXTD=Bluesfestradio.com YEAR: 2004
EXTT0=
EXTT1=
EXTT2=
EXTT3=
EXTT4=
EXTT5=
EXTT6=
EXTT7=
EXTT8=
EXTT9=
EXTT10=
EXTT11=
EXTT12=
PLAYORDER=
